<svg version="1.1" id="Layer_1" xmlns="http://www.w3.org/2000/svg" xmlns:xlink="http://www.w3.org/1999/xlink" x="0px" y="0px"
	 width="100%" viewBox="0 0 175 175" enable-background="new 0 0 175 175" xml:space="preserve">
<path fill="#FEFEFE" opacity="1.000000" stroke="none" 
	d="
M108.000000,176.000000 
	C72.355728,176.000000 36.711464,176.000000 1.033598,176.000000 
	C1.033598,117.725716 1.033598,59.451405 1.033598,1.088547 
	C59.237553,1.088547 117.475281,1.088547 175.856506,1.088547 
	C175.856506,59.333096 175.856506,117.666496 175.856506,176.000000 
	C154.577240,176.000000 133.257278,176.000000 111.613129,175.613434 
	C113.575714,174.908920 115.861290,174.582092 118.149551,174.275238 
	C121.159157,173.871597 121.510941,171.609650 120.893372,169.471542 
	C120.446838,167.925522 119.105911,165.678986 117.877304,165.475571 
	C110.679581,164.283859 105.128242,160.341476 100.862930,154.960770 
	C90.772758,142.231964 81.133514,129.145721 70.963554,115.744926 
	C82.361801,111.644005 90.265572,105.388603 95.351723,95.838104 
	C102.923141,81.620903 99.866112,64.344017 87.946480,54.637833 
	C80.985909,48.969818 72.665230,46.340721 63.930397,46.171707 
	C45.782639,45.820572 27.621014,46.070610 9.468539,46.322304 
	C8.173120,46.340271 6.104172,48.204018 5.806389,49.527184 
	C5.314578,51.712498 4.737972,54.778297 8.640717,55.187107 
	C10.121283,55.342194 11.577821,55.721401 13.047582,55.985836 
	C18.762041,57.013969 20.627897,59.082233 21.074968,64.989998 
	C21.200544,66.649429 21.251926,68.318260 21.252604,69.982811 
	C21.263441,96.636719 21.300657,123.290718 21.242077,149.944489 
	C21.216688,161.496353 20.920563,162.075150 9.659901,164.417587 
	C5.238404,165.337341 5.591052,167.985214 5.755277,170.981934 
	C5.956463,174.653122 8.747025,173.793411 10.968754,173.792969 
	C24.948618,173.790100 38.928486,173.769272 52.908329,173.744888 
	C55.130955,173.741013 57.929829,174.640640 58.037209,170.904266 
	C58.121498,167.971359 58.863922,164.594360 54.065350,164.607529 
	C52.252224,164.612488 50.437782,164.195557 48.624210,163.968765 
	C42.272133,163.174500 40.193642,161.115799 39.992527,154.632050 
	C39.760204,147.142212 39.838356,139.642456 39.803616,132.146912 
	C39.781578,127.392303 39.799496,122.637520 39.799496,117.878036 
	C42.185619,117.878036 43.885014,118.105522 45.501675,117.836281 
	C50.793449,116.954971 53.514702,119.275864 56.296528,123.863899 
	C63.772377,136.193695 71.955284,148.107651 80.155792,159.980667 
	C85.552246,167.793869 93.102287,172.739014 102.506798,174.674377 
	C104.350716,175.053833 106.169579,175.554977 108.000000,176.000000 
M131.787918,49.235500 
	C131.845657,41.752922 131.668640,34.258736 132.037857,26.791559 
	C132.316727,21.151588 135.995697,16.978561 141.137131,15.647515 
	C146.235153,14.327703 151.410202,15.133574 153.985977,19.688555 
	C157.180664,25.338013 160.504730,23.966105 164.917389,22.046057 
	C168.249176,20.596308 168.696671,18.964064 167.045242,15.954609 
	C161.906296,6.589712 150.426453,1.849582 138.115921,4.160266 
	C128.217407,6.018214 119.991447,13.939702 119.227898,24.086580 
	C118.458725,34.308121 118.358757,44.691624 119.230293,54.896145 
	C120.267700,67.042984 129.948090,74.722717 142.982269,75.246361 
	C156.551102,75.791481 166.543716,69.085091 168.909698,56.964470 
	C170.074585,50.996796 169.976044,44.743462 169.965988,38.620190 
	C169.964111,37.470150 167.724533,35.402584 166.431625,35.331951 
	C160.124619,34.987415 153.788406,35.165520 147.462601,35.180790 
	C142.706833,35.192272 144.143921,38.798744 144.034592,41.344791 
	C143.924911,43.899471 143.216385,47.027905 147.535355,46.951328 
	C150.656738,46.895985 153.779922,46.940536 156.874466,46.940536 
	C157.310699,57.332691 153.537766,62.661930 145.791000,63.109142 
	C136.968903,63.618435 132.553116,59.520710 131.787918,49.235500 
z"/>
<path fill="#050505" opacity="1.000000" stroke="none" 
	d="
M108.375000,176.000000 
	C106.169579,175.554977 104.350716,175.053833 102.506798,174.674377 
	C93.102287,172.739014 85.552246,167.793869 80.155792,159.980667 
	C71.955284,148.107651 63.772377,136.193695 56.296528,123.863899 
	C53.514702,119.275864 50.793449,116.954971 45.501675,117.836281 
	C43.885014,118.105522 42.185619,117.878036 39.799496,117.878036 
	C39.799496,122.637520 39.781578,127.392303 39.803616,132.146912 
	C39.838356,139.642456 39.760204,147.142212 39.992527,154.632050 
	C40.193642,161.115799 42.272133,163.174500 48.624210,163.968765 
	C50.437782,164.195557 52.252224,164.612488 54.065350,164.607529 
	C58.863922,164.594360 58.121498,167.971359 58.037209,170.904266 
	C57.929829,174.640640 55.130955,173.741013 52.908329,173.744888 
	C38.928486,173.769272 24.948618,173.790100 10.968754,173.792969 
	C8.747025,173.793411 5.956463,174.653122 5.755277,170.981934 
	C5.591052,167.985214 5.238404,165.337341 9.659901,164.417587 
	C20.920563,162.075150 21.216688,161.496353 21.242077,149.944489 
	C21.300657,123.290718 21.263441,96.636719 21.252604,69.982811 
	C21.251926,68.318260 21.200544,66.649429 21.074968,64.989998 
	C20.627897,59.082233 18.762041,57.013969 13.047582,55.985836 
	C11.577821,55.721401 10.121283,55.342194 8.640717,55.187107 
	C4.737972,54.778297 5.314578,51.712498 5.806389,49.527184 
	C6.104172,48.204018 8.173120,46.340271 9.468539,46.322304 
	C27.621014,46.070610 45.782639,45.820572 63.930397,46.171707 
	C72.665230,46.340721 80.985909,48.969818 87.946480,54.637833 
	C99.866112,64.344017 102.923141,81.620903 95.351723,95.838104 
	C90.265572,105.388603 82.361801,111.644005 70.963554,115.744926 
	C81.133514,129.145721 90.772758,142.231964 100.862930,154.960770 
	C105.128242,160.341476 110.679581,164.283859 117.877304,165.475571 
	C119.105911,165.678986 120.446838,167.925522 120.893372,169.471542 
	C121.510941,171.609650 121.159157,173.871597 118.149551,174.275238 
	C115.861290,174.582092 113.575714,174.908920 111.144470,175.613434 
	C110.250000,176.000000 109.500000,176.000000 108.375000,176.000000 
M59.901745,58.085751 
	C53.287281,58.085751 46.672813,58.085751 40.064857,58.085751 
	C40.064857,74.030823 40.064857,89.592346 40.064857,105.317223 
	C46.459099,105.317223 52.660095,106.002556 58.653011,105.177132 
	C71.867767,103.357018 78.964523,94.987686 79.397621,81.924255 
	C79.831978,68.822586 74.047729,61.481564 59.901745,58.085751 
z"/>
<path fill="#050505" opacity="1.000000" stroke="none" 
	d="
M131.812531,49.697926 
	C132.553116,59.520710 136.968903,63.618435 145.791000,63.109142 
	C153.537766,62.661930 157.310699,57.332691 156.874466,46.940536 
	C153.779922,46.940536 150.656738,46.895985 147.535355,46.951328 
	C143.216385,47.027905 143.924911,43.899471 144.034592,41.344791 
	C144.143921,38.798744 142.706833,35.192272 147.462601,35.180790 
	C153.788406,35.165520 160.124619,34.987415 166.431625,35.331951 
	C167.724533,35.402584 169.964111,37.470150 169.965988,38.620190 
	C169.976044,44.743462 170.074585,50.996796 168.909698,56.964470 
	C166.543716,69.085091 156.551102,75.791481 142.982269,75.246361 
	C129.948090,74.722717 120.267700,67.042984 119.230293,54.896145 
	C118.358757,44.691624 118.458725,34.308121 119.227898,24.086580 
	C119.991447,13.939702 128.217407,6.018214 138.115921,4.160266 
	C150.426453,1.849582 161.906296,6.589712 167.045242,15.954609 
	C168.696671,18.964064 168.249176,20.596308 164.917389,22.046057 
	C160.504730,23.966105 157.180664,25.338013 153.985977,19.688555 
	C151.410202,15.133574 146.235153,14.327703 141.137131,15.647515 
	C135.995697,16.978561 132.316727,21.151588 132.037857,26.791559 
	C131.668640,34.258736 131.845657,41.752922 131.812531,49.697926 
z"/>
<path fill="#FEFEFE" opacity="1.000000" stroke="none" 
	d="
M60.331337,58.178734 
	C74.047729,61.481564 79.831978,68.822586 79.397621,81.924255 
	C78.964523,94.987686 71.867767,103.357018 58.653011,105.177132 
	C52.660095,106.002556 46.459099,105.317223 40.064857,105.317223 
	C40.064857,89.592346 40.064857,74.030823 40.064857,58.085751 
	C46.672813,58.085751 53.287281,58.085751 60.331337,58.178734 
z"/>
</svg>