<svg version="1.1" id="Layer_1" xmlns="http://www.w3.org/2000/svg" xmlns:xlink="http://www.w3.org/1999/xlink" x="0px" y="0px"
	 width="100%" viewBox="0 0 511 512" enable-background="new 0 0 511 512" xml:space="preserve">
<path fill="#00E2FD" opacity="1.000000" stroke="none" 
	d="
M1.000000,512.000000 
	C1.000000,342.308411 1.000000,172.616852 1.463884,2.462575 
	C169.250198,1.999859 336.572632,1.999270 503.895081,2.005713 
	C506.226318,2.005803 508.557556,2.094298 510.924805,2.592575 
	C510.973785,4.043110 510.998199,5.042601 510.998199,6.042093 
	C510.999939,173.149307 511.000183,340.256531 510.995270,507.363739 
	C510.995239,508.862061 510.924957,510.360352 510.434113,511.906982 
	C507.814362,511.970215 505.648010,511.998169 503.481628,511.998169 
	C335.987762,512.000183 168.493881,512.000000 1.000000,512.000000 
M278.001495,195.866119 
	C278.351776,198.827789 278.580719,201.809769 279.072815,204.747681 
	C281.503815,219.261459 287.519287,231.201111 301.914276,237.502075 
	C320.858185,245.794159 339.713409,244.495987 357.705688,235.680969 
	C363.667114,232.760269 369.110870,226.591904 372.261536,220.582138 
	C378.784180,208.140579 379.786652,194.196747 378.914795,180.240936 
	C378.303131,170.450211 375.619659,162.110809 364.085602,160.406982 
	C363.547882,160.327545 363.094360,159.678345 363.182281,159.746826 
	C365.600769,156.915512 368.489410,154.499283 370.149292,151.420563 
	C376.723236,139.227402 373.379028,123.573212 358.188202,115.595306 
	C345.779083,109.078323 332.408386,107.649284 318.889435,109.496918 
	C311.962067,110.443680 304.885040,112.829453 298.690735,116.105812 
	C283.293793,124.249702 278.732147,138.743515 278.001251,155.938278 
	C278.001648,168.958237 278.002045,181.978210 278.001495,195.866119 
M187.864151,361.276031 
	C186.903290,358.541168 185.229080,355.835846 185.114182,353.065918 
	C184.757416,344.463074 184.992416,335.835693 184.998260,327.217834 
	C185.001526,322.384735 184.914246,317.548553 185.076111,312.720734 
	C185.114777,311.567352 185.985443,310.441803 186.473419,309.303436 
	C187.760193,309.876221 189.175629,310.272552 190.288345,311.083984 
	C191.025375,311.621460 191.275925,312.789490 191.833649,313.614838 
	C204.954529,333.031403 217.516144,352.858917 231.368408,371.739441 
	C247.352676,393.525879 269.784973,400.788483 296.118225,396.900665 
	C304.672852,395.637695 309.775848,390.052795 310.914581,381.120605 
	C311.796661,374.201538 308.452423,366.822754 302.167816,364.790649 
	C290.443115,360.999573 281.239655,354.049927 273.965088,344.411682 
	C263.856049,331.017975 253.839371,317.548859 244.083344,303.897491 
	C240.688324,299.146912 241.466766,297.150635 246.274567,293.465942 
	C250.231445,290.433411 254.661743,287.850037 258.057892,284.282806 
	C274.813232,266.683319 281.119354,245.744507 276.371338,221.865158 
	C273.952911,209.702087 268.551819,198.844818 258.688660,190.862061 
	C242.830292,178.027084 223.944290,173.628784 204.192322,173.159348 
	C186.409592,172.736740 168.595398,173.709579 150.793747,173.979446 
	C142.962555,174.098175 135.128036,173.992233 127.295059,174.002365 
	C116.482658,174.016342 111.759323,178.111069 110.300827,188.712494 
	C109.238495,196.434387 113.373718,204.201263 119.875122,206.810989 
	C124.929749,208.839966 129.955383,210.941238 134.995407,213.945541 
	C134.996445,259.071594 135.003235,304.197632 134.993317,349.323700 
	C134.991470,357.678101 133.256042,360.172424 125.379906,361.873932 
	C117.068375,363.669464 111.462494,367.455994 111.181442,376.912354 
	C110.927399,385.459961 113.611465,394.227875 124.196999,394.114044 
	C132.755203,394.021973 141.319458,394.869110 149.884552,394.957275 
	C164.672119,395.109497 179.463776,395.116425 194.251068,394.949585 
	C203.384079,394.846588 209.544662,389.651703 210.717896,380.717255 
	C211.563141,374.280396 209.885345,366.703369 200.211456,363.761780 
	C196.323669,362.579590 192.085587,362.549347 187.864151,361.276031 
z"/>
<path fill="#79F0FE" opacity="1.000000" stroke="none" 
	d="
M1.000000,512.500000 
	C168.493881,512.000000 335.987762,512.000183 503.481628,511.998169 
	C505.648010,511.998169 507.814362,511.970215 510.712433,511.943054 
	C511.629425,511.953857 511.814728,511.976929 512.000000,512.000000 
	C510.666656,512.333313 509.334198,512.953125 507.999878,512.957092 
	C487.500061,513.018677 467.000000,513.000000 446.500000,513.000000 
	C298.000000,513.000000 149.500000,513.000000 1.000000,512.500000 
z"/>
<path fill="#7AF0FE" opacity="1.000000" stroke="none" 
	d="
M510.888794,2.141531 
	C508.557556,2.094298 506.226318,2.005803 503.895081,2.005713 
	C336.572632,1.999270 169.250198,1.999859 1.463884,1.999937 
	C2.333333,1.666667 3.665807,1.046907 5.000129,1.042901 
	C25.499945,0.981357 46.000000,1.000000 66.500000,1.000000 
	C215.000000,1.000000 363.500000,1.000000 511.722137,1.534924 
	C511.259125,2.093742 511.073944,2.117637 510.888794,2.141531 
z"/>
<path fill="#3CE9FE" opacity="1.000000" stroke="none" 
	d="
M510.924805,2.592575 
	C511.073944,2.117637 511.259125,2.093742 511.722137,2.034924 
	C512.000000,171.689987 512.000000,341.379974 512.000000,511.534973 
	C511.814728,511.976929 511.629425,511.953857 511.165802,511.894714 
	C510.924957,510.360352 510.995239,508.862061 510.995270,507.363739 
	C511.000183,340.256531 510.999939,173.149307 510.998199,6.042093 
	C510.998199,5.042601 510.973785,4.043110 510.924805,2.592575 
z"/>
<path fill="#00ECFE" opacity="1.000000" stroke="none" 
	d="
M134.993896,213.010376 
	C129.955383,210.941238 124.929749,208.839966 119.875122,206.810989 
	C113.373718,204.201263 109.238495,196.434387 110.300827,188.712494 
	C111.759323,178.111069 116.482658,174.016342 127.295059,174.002365 
	C135.128036,173.992233 142.962555,174.098175 150.793747,173.979446 
	C168.595398,173.709579 186.409592,172.736740 204.192322,173.159348 
	C223.944290,173.628784 242.830292,178.027084 258.688660,190.862061 
	C268.551819,198.844818 273.952911,209.702087 276.371338,221.865158 
	C281.119354,245.744507 274.813232,266.683319 258.057892,284.282806 
	C254.661743,287.850037 250.231445,290.433411 246.274567,293.465942 
	C241.466766,297.150635 240.688324,299.146912 244.083344,303.897491 
	C253.839371,317.548859 263.856049,331.017975 273.965088,344.411682 
	C281.239655,354.049927 290.443115,360.999573 302.167816,364.790649 
	C308.452423,366.822754 311.796661,374.201538 310.914581,381.120605 
	C309.775848,390.052795 304.672852,395.637695 296.118225,396.900665 
	C269.784973,400.788483 247.352676,393.525879 231.368408,371.739441 
	C217.516144,352.858917 204.954529,333.031403 191.833649,313.614838 
	C191.275925,312.789490 191.025375,311.621460 190.288345,311.083984 
	C189.175629,310.272552 187.760193,309.876221 186.473419,309.303436 
	C185.985443,310.441803 185.114777,311.567352 185.076111,312.720734 
	C184.914246,317.548553 185.001526,322.384735 184.998260,327.217834 
	C184.992416,335.835693 184.757416,344.463074 185.114182,353.065918 
	C185.229080,355.835846 186.903290,358.541168 187.737778,361.771729 
	C187.362549,362.474792 187.158508,362.719482 186.666214,362.942139 
	C184.886215,361.258453 183.439270,359.634094 181.994934,357.540100 
	C181.999786,340.048615 182.002029,323.026764 182.298737,305.833771 
	C188.161072,302.057434 189.898865,307.675079 193.069336,310.335022 
	C199.355499,320.847656 205.453537,331.095276 211.886536,341.128174 
	C213.769470,344.064789 216.604980,346.390564 219.001923,348.998169 
	C219.000000,349.000000 219.003708,348.997284 219.018127,349.367798 
	C220.755539,354.500702 222.760071,359.038971 228.120758,361.252533 
	C228.496078,361.999878 228.750626,362.495941 229.076965,363.293274 
	C229.766647,364.062653 230.384537,364.530731 231.198380,365.134186 
	C231.640335,365.476318 231.842026,365.719788 232.016724,366.339783 
	C232.691116,367.452118 233.348206,368.224640 234.201324,369.132019 
	C234.643692,369.472961 234.845291,369.716095 235.016251,370.358521 
	C237.664459,375.921143 241.081039,380.290375 247.253632,381.997284 
	C247.501205,381.999451 247.996338,382.004883 248.083725,382.331665 
	C250.449341,384.104126 252.727570,385.549805 255.253723,386.996765 
	C255.501648,386.998077 255.997482,387.001221 256.094055,387.339111 
	C259.796173,389.115967 263.401733,390.554932 267.407349,392.015442 
	C270.204071,392.360046 272.600739,392.683075 275.108826,393.364227 
	C279.994965,397.977997 285.525055,395.708588 290.781952,395.374512 
	C291.569000,395.324493 292.264252,393.829956 293.333862,393.001648 
	C294.108337,392.998169 294.550873,392.996643 295.373718,392.993835 
	C300.881042,392.094421 303.879303,389.010254 304.995605,383.537506 
	C306.181427,372.115784 301.471649,368.811829 293.148804,365.340363 
	C288.327850,363.329620 283.557770,360.487152 279.734467,356.966064 
	C274.433411,352.083954 269.712860,346.464111 265.333252,340.711304 
	C256.288513,328.830627 247.320297,316.865906 238.935303,304.518341 
	C233.882858,297.078247 235.435516,294.614471 242.976471,289.852631 
	C251.703033,284.342163 259.111298,277.246216 264.462036,268.166077 
	C271.181763,256.762787 273.912628,244.651093 273.109863,231.380325 
	C271.957947,212.338455 263.730988,198.035156 247.195572,188.342819 
	C232.013229,179.443588 215.668427,175.639816 198.200058,175.991409 
	C179.571045,176.366409 160.938446,176.582245 142.311752,177.043320 
	C135.067963,177.222626 127.637695,175.593903 120.764061,179.897751 
	C117.668457,181.836014 114.894707,183.357971 114.990654,187.488098 
	C115.064156,190.652206 115.006088,193.819351 115.019669,197.350708 
	C116.432556,203.106506 121.041908,204.530685 125.453148,206.347183 
	C128.721375,207.693024 131.827179,209.433273 135.002747,210.998901 
	C135.000137,211.000000 135.004272,210.994797 135.002930,211.330658 
	C134.999023,212.114456 134.996460,212.562424 134.993896,213.010376 
z"/>
<path fill="#00E8FE" opacity="1.000000" stroke="none" 
	d="
M278.002441,155.001221 
	C278.732147,138.743515 283.293793,124.249702 298.690735,116.105812 
	C304.885040,112.829453 311.962067,110.443680 318.889435,109.496918 
	C332.408386,107.649284 345.779083,109.078323 358.188202,115.595306 
	C373.379028,123.573212 376.723236,139.227402 370.149292,151.420563 
	C368.489410,154.499283 365.600769,156.915512 363.182281,159.746826 
	C363.094360,159.678345 363.547882,160.327545 364.085602,160.406982 
	C375.619659,162.110809 378.303131,170.450211 378.914795,180.240936 
	C379.786652,194.196747 378.784180,208.140579 372.261536,220.582138 
	C369.110870,226.591904 363.667114,232.760269 357.705688,235.680969 
	C339.713409,244.495987 320.858185,245.794159 301.914276,237.502075 
	C287.519287,231.201111 281.503815,219.261459 279.072815,204.747681 
	C278.580719,201.809769 278.351776,198.827789 278.376099,195.432739 
	C279.499084,195.000168 280.247498,195.001007 281.001526,195.386688 
	C281.336243,197.514450 281.665375,199.257370 281.800293,201.272919 
	C282.890717,217.643585 291.313477,228.720215 305.767059,235.308929 
	C320.007202,241.800354 334.328796,241.580276 348.833038,235.700317 
	C359.094849,231.540222 366.420868,224.691483 370.968445,214.656845 
	C376.079102,203.379593 376.627228,191.470154 375.866608,179.421982 
	C375.770172,177.894257 373.994995,176.472504 372.998779,175.000824 
	C373.000000,175.000000 372.998138,175.001831 372.998871,174.601044 
	C373.225037,169.945297 371.058105,167.684555 366.999390,167.000610 
	C367.000000,167.000000 366.998779,167.001221 366.965027,166.618317 
	C364.951324,165.492279 362.971405,164.749130 360.523315,164.005798 
	C353.240509,164.003448 346.412903,164.257736 339.615417,163.914551 
	C334.555817,163.659088 331.045959,166.215500 327.573700,169.147690 
	C322.536255,173.401688 324.511902,179.393143 325.605835,183.951645 
	C326.377258,187.166061 331.040131,190.349030 334.657928,191.722794 
	C338.238525,193.082413 339.827515,195.649719 338.505280,197.760132 
	C336.454285,201.033707 333.113617,204.042557 329.624969,205.710815 
	C326.484711,207.212448 318.462433,202.704941 317.579712,199.501740 
	C316.077484,194.050735 314.474548,188.474701 314.166199,182.882156 
	C313.665070,173.791687 313.831787,164.746841 316.736298,155.741379 
	C318.327545,150.807709 320.534943,147.075928 326.020020,147.003433 
	C328.678925,146.968277 331.338684,147.000656 334.087830,147.332077 
	C339.043671,150.342773 343.623688,154.065460 348.833221,155.496353 
	C361.109253,158.868210 372.190826,147.452255 369.259247,135.195877 
	C366.770905,124.792282 353.461853,113.968285 341.653748,113.013351 
	C340.883148,113.011322 340.442780,113.009323 339.835022,112.829315 
	C339.111694,112.766205 338.555817,112.881096 337.568542,112.995071 
	C330.758484,112.996628 324.379852,112.999107 317.736755,112.806694 
	C308.401550,113.505486 300.826508,117.659210 294.048431,123.468491 
	C286.503113,129.935349 282.942078,138.553009 281.017914,148.457962 
	C281.009125,150.928452 281.000916,152.962997 280.618866,154.998108 
	C279.497528,154.999512 278.749969,155.000366 278.002441,155.001221 
z"/>
<path fill="#00ECFE" opacity="1.000000" stroke="none" 
	d="
M134.994659,213.477966 
	C134.996460,212.562424 134.999023,212.114456 135.353424,211.447998 
	C136.470123,214.159882 137.888672,217.087631 137.900650,220.021133 
	C138.052017,257.097595 138.001114,294.174896 138.000885,331.251984 
	C138.000854,337.902588 138.085251,344.554718 137.968597,351.203308 
	C137.856888,357.570221 133.807999,363.304352 128.886200,364.849213 
	C126.083069,365.729065 123.308441,366.839874 120.715057,368.213165 
	C117.257614,370.044037 114.210464,376.848389 115.126686,379.988617 
	C117.106125,386.772858 122.763153,390.963196 130.142365,391.369629 
	C131.465927,392.154938 132.642685,392.934143 133.822968,392.939545 
	C151.205490,393.018799 168.588776,393.039185 185.970688,392.909790 
	C187.319336,392.899719 188.658875,391.667725 190.419693,391.002441 
	C200.492798,391.904358 208.191116,381.665161 204.981537,373.644989 
	C203.310684,371.522766 201.652786,369.762878 199.747009,368.002045 
	C199.499115,368.001068 199.003357,367.997559 198.974091,367.629242 
	C197.626251,366.510529 196.307678,365.760162 194.582245,365.009094 
	C191.783340,364.339447 189.391296,363.670502 186.999268,363.001526 
	C187.158508,362.719482 187.362549,362.474792 187.809174,362.131134 
	C192.085587,362.549347 196.323669,362.579590 200.211456,363.761780 
	C209.885345,366.703369 211.563141,374.280396 210.717896,380.717255 
	C209.544662,389.651703 203.384079,394.846588 194.251068,394.949585 
	C179.463776,395.116425 164.672119,395.109497 149.884552,394.957275 
	C141.319458,394.869110 132.755203,394.021973 124.196999,394.114044 
	C113.611465,394.227875 110.927399,385.459961 111.181442,376.912354 
	C111.462494,367.455994 117.068375,363.669464 125.379906,361.873932 
	C133.256042,360.172424 134.991470,357.678101 134.993317,349.323700 
	C135.003235,304.197632 134.996445,259.071594 134.994659,213.477966 
z"/>
<path fill="#00ECFE" opacity="1.000000" stroke="none" 
	d="
M278.001831,155.469757 
	C278.749969,155.000366 279.497528,154.999512 280.622192,155.467041 
	C280.998169,168.957550 280.997040,181.979691 280.995880,195.001831 
	C280.247498,195.001007 279.499084,195.000168 278.376587,194.998749 
	C278.002045,181.978210 278.001648,168.958237 278.001831,155.469757 
z"/>
<path fill="#07FDFE" opacity="1.000000" stroke="none" 
	d="
M129.997177,391.003662 
	C122.763153,390.963196 117.106125,386.772858 115.126686,379.988617 
	C114.210464,376.848389 117.257614,370.044037 120.715057,368.213165 
	C123.308441,366.839874 126.083069,365.729065 128.886200,364.849213 
	C133.807999,363.304352 137.856888,357.570221 137.968597,351.203308 
	C138.085251,344.554718 138.000854,337.902588 138.000885,331.251984 
	C138.001114,294.174896 138.052017,257.097595 137.900650,220.021133 
	C137.888672,217.087631 136.470123,214.159882 135.354767,211.112137 
	C135.004272,210.994797 135.000137,211.000000 134.985031,210.631226 
	C132.709808,208.384674 130.560257,206.349396 128.163406,204.666336 
	C124.641594,202.193283 120.961037,199.943008 117.303360,197.669800 
	C116.648758,197.262970 115.777664,197.204483 115.006538,196.985153 
	C115.006088,193.819351 115.064156,190.652206 114.990654,187.488098 
	C114.894707,183.357971 117.668457,181.836014 120.764061,179.897751 
	C127.637695,175.593903 135.067963,177.222626 142.311752,177.043320 
	C160.938446,176.582245 179.571045,176.366409 198.200058,175.991409 
	C215.668427,175.639816 232.013229,179.443588 247.195572,188.342819 
	C263.730988,198.035156 271.957947,212.338455 273.109863,231.380325 
	C273.912628,244.651093 271.181763,256.762787 264.462036,268.166077 
	C259.111298,277.246216 251.703033,284.342163 242.976471,289.852631 
	C235.435516,294.614471 233.882858,297.078247 238.935303,304.518341 
	C247.320297,316.865906 256.288513,328.830627 265.333252,340.711304 
	C269.712860,346.464111 274.433411,352.083954 279.734467,356.966064 
	C283.557770,360.487152 288.327850,363.329620 293.148804,365.340363 
	C301.471649,368.811829 306.181427,372.115784 304.658875,383.603577 
	C301.212250,387.081909 298.102844,390.038513 294.993439,392.995117 
	C294.550873,392.996643 294.108337,392.998169 292.865723,392.999695 
	C286.376251,393.001862 280.686829,393.003967 274.997406,393.006104 
	C272.600739,392.683075 270.204071,392.360046 267.299316,391.678894 
	C263.193329,389.880920 259.595398,388.441071 255.997482,387.001221 
	C255.997482,387.001221 255.501648,386.998077 255.084534,386.707153 
	C252.443726,384.945801 250.220032,383.475342 247.996338,382.004883 
	C247.996338,382.004883 247.501205,381.999451 247.086639,381.710052 
	C242.782104,377.612549 238.892120,373.804413 235.002151,369.996307 
	C234.845291,369.716095 234.643692,369.472961 234.151245,368.819611 
	C233.269897,367.581543 232.634644,366.790771 231.999390,366.000000 
	C231.842026,365.719788 231.640335,365.476318 231.124573,364.834229 
	C230.238266,363.929901 229.621719,363.460938 229.005188,362.991974 
	C228.750626,362.495941 228.496078,361.999878 228.059265,360.910645 
	C224.919220,356.544067 221.961472,352.770660 219.003708,348.997284 
	C219.003708,348.997284 219.000000,349.000000 218.942444,348.646423 
	C218.112976,346.641754 217.510864,344.882538 216.540512,343.357697 
	C211.653625,335.678101 206.813889,327.961212 201.660645,320.461487 
	C199.106247,316.743958 195.913147,313.465332 193.009003,309.988129 
	C189.898865,307.675079 188.161072,302.057434 181.920197,305.919067 
	C180.499771,307.668518 179.121231,309.154083 179.103287,310.655884 
	C178.937042,324.564911 178.892624,338.478790 179.138229,352.385498 
	C179.171616,354.276459 180.996796,356.135773 181.992340,358.009735 
	C183.439270,359.634094 184.886215,361.258453 186.666214,362.942139 
	C189.391296,363.670502 191.783340,364.339447 194.653458,365.351685 
	C196.422150,366.462494 197.712753,367.230042 199.003357,367.997559 
	C199.003357,367.997559 199.499115,368.001068 199.814301,368.351532 
	C201.751160,370.470459 203.372833,372.238892 204.994507,374.007355 
	C208.191116,381.665161 200.492798,391.904358 189.986572,390.999054 
	C183.019836,390.663788 176.900345,390.007568 170.787323,390.063416 
	C157.188889,390.187683 143.593689,390.668274 129.997177,391.003662 
M241.486832,365.009155 
	C254.735153,381.391907 272.138428,387.138062 292.597870,384.783691 
	C300.292053,383.898285 300.664795,383.182800 299.549774,374.818420 
	C283.661957,373.177307 272.731262,363.295929 263.389252,351.447449 
	C253.294327,338.644104 243.595016,325.514923 234.103058,312.255890 
	C229.302673,305.550385 225.340317,298.244965 220.659790,290.661072 
	C235.399490,286.844635 246.386002,278.921661 254.890594,267.435974 
	C270.165924,246.806259 268.904297,217.902786 251.602158,201.014938 
	C239.871460,189.565125 224.929703,185.181885 209.113983,184.953751 
	C183.149292,184.579193 157.169510,185.257080 131.196014,185.482452 
	C127.930321,185.510788 124.664162,185.486328 121.453117,185.486328 
	C120.220818,194.047058 120.221718,194.042404 127.755974,195.496872 
	C129.552429,195.843689 131.336807,196.253250 133.133423,196.599182 
	C140.258240,197.971130 144.164490,202.354034 145.102371,209.455872 
	C145.450348,212.090698 145.865356,214.745514 145.872559,217.392242 
	C145.988235,259.869446 146.083099,302.346863 146.057312,344.824127 
	C146.054306,349.794312 145.561829,354.800842 144.844589,359.724731 
	C143.933945,365.976166 140.138306,369.859924 133.911011,371.203979 
	C129.708542,372.111053 125.487289,372.931091 121.242279,373.796631 
	C121.242279,376.843109 121.242279,379.595886 121.242279,382.429688 
	C147.554688,382.429688 173.571762,382.429688 199.750916,382.429688 
	C199.750916,379.472412 199.750916,376.843536 199.750916,373.903870 
	C193.913605,372.982971 188.186249,372.130829 182.478073,371.165100 
	C176.096207,370.085419 172.582352,366.076996 171.407318,359.880035 
	C171.004929,357.757965 170.593002,355.595520 170.578064,353.448761 
	C170.444748,334.294983 170.394470,315.140594 170.350021,295.986328 
	C170.348572,295.363953 170.671234,294.740814 170.859116,294.058868 
	C177.292313,294.058868 183.607254,294.300568 189.891693,293.967102 
	C193.590515,293.770874 195.449814,295.136780 197.236786,298.291901 
	C210.299164,321.355530 224.278931,343.831512 241.486832,365.009155 
z"/>
<path fill="#00F3FE" opacity="1.000000" stroke="none" 
	d="
M181.994934,357.540100 
	C180.996796,356.135773 179.171616,354.276459 179.138229,352.385498 
	C178.892624,338.478790 178.937042,324.564911 179.103287,310.655884 
	C179.121231,309.154083 180.499771,307.668518 181.625732,306.090149 
	C182.002029,323.026764 181.999786,340.048615 181.994934,357.540100 
z"/>
<path fill="#00F3FE" opacity="1.000000" stroke="none" 
	d="
M193.069336,310.335022 
	C195.913147,313.465332 199.106247,316.743958 201.660645,320.461487 
	C206.813889,327.961212 211.653625,335.678101 216.540512,343.357697 
	C217.510864,344.882538 218.112976,346.641754 218.944366,348.644592 
	C216.604980,346.390564 213.769470,344.064789 211.886536,341.128174 
	C205.453537,331.095276 199.355499,320.847656 193.069336,310.335022 
z"/>
<path fill="#00ECFE" opacity="1.000000" stroke="none" 
	d="
M115.019669,197.350708 
	C115.777664,197.204483 116.648758,197.262970 117.303360,197.669800 
	C120.961037,199.943008 124.641594,202.193283 128.163406,204.666336 
	C130.560257,206.349396 132.709808,208.384674 134.987640,210.630127 
	C131.827179,209.433273 128.721375,207.693024 125.453148,206.347183 
	C121.041908,204.530685 116.432556,203.106506 115.019669,197.350708 
z"/>
<path fill="#00F1FE" opacity="1.000000" stroke="none" 
	d="
M275.108826,393.364197 
	C280.686829,393.003967 286.376251,393.001862 292.533813,393.001709 
	C292.264252,393.829956 291.569000,395.324493 290.781952,395.374512 
	C285.525055,395.708588 279.994965,397.977997 275.108826,393.364197 
z"/>
<path fill="#00F3FE" opacity="1.000000" stroke="none" 
	d="
M235.016251,370.358521 
	C238.892120,373.804413 242.782104,377.612549 246.839081,381.707886 
	C241.081039,380.290375 237.664459,375.921143 235.016251,370.358521 
z"/>
<path fill="#00F3FE" opacity="1.000000" stroke="none" 
	d="
M219.018127,349.367798 
	C221.961472,352.770660 224.919220,356.544067 227.938492,360.659332 
	C222.760071,359.038971 220.755539,354.500702 219.018127,349.367798 
z"/>
<path fill="#00F4FE" opacity="1.000000" stroke="none" 
	d="
M295.373718,392.993835 
	C298.102844,390.038513 301.212250,387.081909 304.658386,384.059204 
	C303.879303,389.010254 300.881042,392.094421 295.373718,392.993835 
z"/>
<path fill="#00F4FE" opacity="1.000000" stroke="none" 
	d="
M256.094055,387.339111 
	C259.595398,388.441071 263.193329,389.880920 266.899292,391.657349 
	C263.401733,390.554932 259.796173,389.115967 256.094055,387.339111 
z"/>
<path fill="#00F3FE" opacity="1.000000" stroke="none" 
	d="
M248.083725,382.331665 
	C250.220032,383.475342 252.443726,384.945801 254.836609,386.705872 
	C252.727570,385.549805 250.449341,384.104126 248.083725,382.331665 
z"/>
<path fill="#00F3FE" opacity="1.000000" stroke="none" 
	d="
M232.016724,366.339783 
	C232.634644,366.790771 233.269897,367.581543 233.955231,368.684753 
	C233.348206,368.224640 232.691116,367.452118 232.016724,366.339783 
z"/>
<path fill="#00F3FE" opacity="1.000000" stroke="none" 
	d="
M229.076965,363.293274 
	C229.621719,363.460938 230.238266,363.929901 230.928619,364.698792 
	C230.384537,364.530731 229.766647,364.062653 229.076965,363.293274 
z"/>
<path fill="#05FDFE" opacity="1.000000" stroke="none" 
	d="
M281.001526,195.386688 
	C280.997040,181.979691 280.998169,168.957550 280.996002,155.466492 
	C281.000916,152.962997 281.009125,150.928452 281.368713,148.380234 
	C282.787659,146.321777 284.410187,144.915482 284.835724,143.210464 
	C288.531189,128.403473 298.629547,120.295052 312.568634,115.936745 
	C314.496887,115.333832 316.196014,113.998077 318.001221,113.001587 
	C324.379852,112.999107 330.758484,112.996628 337.735718,113.172920 
	C338.890381,113.236900 339.446411,113.122116 340.002441,113.007324 
	C340.442780,113.009323 340.883148,113.011322 341.751831,113.347137 
	C343.533997,114.533142 344.808411,115.563377 346.254669,116.208252 
	C354.803772,120.020218 362.938599,124.127541 366.308838,133.933411 
	C368.448517,140.158905 364.988007,149.991348 359.332275,151.780258 
	C352.495972,153.942535 345.958862,153.142029 339.790527,149.244095 
	C338.073273,148.158936 335.940308,147.731598 333.998077,147.002472 
	C331.338684,147.000656 328.678925,146.968277 326.020020,147.003433 
	C320.534943,147.075928 318.327545,150.807709 316.736298,155.741379 
	C313.831787,164.746841 313.665070,173.791687 314.166199,182.882156 
	C314.474548,188.474701 316.077484,194.050735 317.579712,199.501740 
	C318.462433,202.704941 326.484711,207.212448 329.624969,205.710815 
	C333.113617,204.042557 336.454285,201.033707 338.505280,197.760132 
	C339.827515,195.649719 338.238525,193.082413 334.657928,191.722794 
	C331.040131,190.349030 326.377258,187.166061 325.605835,183.951645 
	C324.511902,179.393143 322.536255,173.401688 327.573700,169.147690 
	C331.045959,166.215500 334.555817,163.659088 339.615417,163.914551 
	C346.412903,164.257736 353.240509,164.003448 360.560120,164.387726 
	C363.042938,165.513611 365.020844,166.257416 366.998779,167.001221 
	C366.998779,167.001221 367.000000,167.000000 367.024933,167.361649 
	C369.032623,170.149475 371.015381,172.575653 372.998138,175.001831 
	C372.998138,175.001831 373.000000,175.000000 372.998169,175.469315 
	C372.309326,187.927673 374.894348,200.119278 369.675049,211.819489 
	C365.333160,221.552719 358.598114,228.568192 349.114105,233.116898 
	C341.742371,236.652512 333.877655,236.780014 325.861816,237.200790 
	C315.362457,237.751938 306.593140,233.759384 298.471558,228.348846 
	C294.454468,225.672684 291.370300,221.089172 288.863586,216.786331 
	C285.994690,211.861740 284.235687,206.290558 281.994476,201.000290 
	C281.665375,199.257370 281.336243,197.514450 281.001526,195.386688 
M331.956177,172.116028 
	C331.123291,175.829468 330.290405,179.542908 329.249512,184.183655 
	C337.081726,184.183655 343.476532,184.183655 349.740753,184.183655 
	C351.016449,192.986633 347.923187,202.821518 342.464264,208.337173 
	C331.162170,219.756714 312.797089,215.780869 307.714508,200.623917 
	C306.468475,196.908051 305.954132,192.812164 305.856110,188.872269 
	C305.603546,178.720596 305.829987,168.558029 305.756683,158.400604 
	C305.681244,147.951248 311.058136,141.125320 320.165344,137.051529 
	C329.260376,132.983170 337.443787,135.385544 344.609253,141.718872 
	C346.929718,143.769836 348.731506,146.407654 350.900665,148.928223 
	C351.683655,148.503113 352.420197,148.152222 353.107635,147.722702 
	C364.284027,140.739594 364.448700,137.376480 353.841675,128.907410 
	C344.972717,121.826103 334.546783,120.376228 323.645142,120.982796 
	C304.332489,122.057373 289.585999,136.639420 289.279266,155.196457 
	C289.070129,167.848816 289.008667,180.512787 289.304047,193.161697 
	C289.584534,205.172226 293.327545,215.806427 303.770172,222.938675 
	C315.661285,231.060226 339.607300,231.041412 351.442291,222.754242 
	C354.370941,220.703537 357.221588,218.007645 359.017090,214.964615 
	C366.922485,201.566406 364.917755,186.888840 364.628693,172.061493 
	C353.499817,172.061493 343.188538,172.061493 331.956177,172.116028 
z"/>
<path fill="#00EFFE" opacity="1.000000" stroke="none" 
	d="
M281.800293,201.272919 
	C284.235687,206.290558 285.994690,211.861740 288.863586,216.786331 
	C291.370300,221.089172 294.454468,225.672684 298.471558,228.348846 
	C306.593140,233.759384 315.362457,237.751938 325.861816,237.200790 
	C333.877655,236.780014 341.742371,236.652512 349.114105,233.116898 
	C358.598114,228.568192 365.333160,221.552719 369.675049,211.819489 
	C374.894348,200.119278 372.309326,187.927673 372.996948,175.470154 
	C373.994995,176.472504 375.770172,177.894257 375.866608,179.421982 
	C376.627228,191.470154 376.079102,203.379593 370.968445,214.656845 
	C366.420868,224.691483 359.094849,231.540222 348.833038,235.700317 
	C334.328796,241.580276 320.007202,241.800354 305.767059,235.308929 
	C291.313477,228.720215 282.890717,217.643585 281.800293,201.272919 
z"/>
<path fill="#00EFFE" opacity="1.000000" stroke="none" 
	d="
M334.087830,147.332077 
	C335.940308,147.731598 338.073273,148.158936 339.790527,149.244095 
	C345.958862,153.142029 352.495972,153.942535 359.332275,151.780258 
	C364.988007,149.991348 368.448517,140.158905 366.308838,133.933411 
	C362.938599,124.127541 354.803772,120.020218 346.254669,116.208252 
	C344.808411,115.563377 343.533997,114.533142 342.082092,113.347160 
	C353.461853,113.968285 366.770905,124.792282 369.259247,135.195877 
	C372.190826,147.452255 361.109253,158.868210 348.833221,155.496353 
	C343.623688,154.065460 339.043671,150.342773 334.087830,147.332077 
z"/>
<path fill="#00EFFE" opacity="1.000000" stroke="none" 
	d="
M317.736755,112.806702 
	C316.196014,113.998077 314.496887,115.333832 312.568634,115.936745 
	C298.629547,120.295052 288.531189,128.403473 284.835724,143.210464 
	C284.410187,144.915482 282.787659,146.321777 281.369263,147.944305 
	C282.942078,138.553009 286.503113,129.935349 294.048431,123.468491 
	C300.826508,117.659210 308.401550,113.505486 317.736755,112.806702 
z"/>
<path fill="#00EFFE" opacity="1.000000" stroke="none" 
	d="
M372.998871,174.601044 
	C371.015381,172.575653 369.032623,170.149475 367.024323,167.362259 
	C371.058105,167.684555 373.225037,169.945297 372.998871,174.601044 
z"/>
<path fill="#00EFFE" opacity="1.000000" stroke="none" 
	d="
M366.965027,166.618317 
	C365.020844,166.257416 363.042938,165.513611 361.028229,164.387894 
	C362.971405,164.749130 364.951324,165.492279 366.965027,166.618317 
z"/>
<path fill="#00EFFE" opacity="1.000000" stroke="none" 
	d="
M339.835022,112.829315 
	C339.446411,113.122116 338.890381,113.236900 338.167145,113.173843 
	C338.555817,112.881096 339.111694,112.766205 339.835022,112.829315 
z"/>
<path fill="#00F3FE" opacity="1.000000" stroke="none" 
	d="
M130.142365,391.369629 
	C143.593689,390.668274 157.188889,390.187683 170.787323,390.063416 
	C176.900345,390.007568 183.019836,390.663788 189.569519,391.000275 
	C188.658875,391.667725 187.319336,392.899719 185.970688,392.909790 
	C168.588776,393.039185 151.205490,393.018799 133.822968,392.939545 
	C132.642685,392.934143 131.465927,392.154938 130.142365,391.369629 
z"/>
<path fill="#00F4FE" opacity="1.000000" stroke="none" 
	d="
M204.981537,373.644989 
	C203.372833,372.238892 201.751160,370.470459 200.062195,368.352509 
	C201.652786,369.762878 203.310684,371.522766 204.981537,373.644989 
z"/>
<path fill="#00F4FE" opacity="1.000000" stroke="none" 
	d="
M198.974091,367.629242 
	C197.712753,367.230042 196.422150,366.462494 195.060333,365.352356 
	C196.307678,365.760162 197.626251,366.510529 198.974091,367.629242 
z"/>
<path fill="#FBFFFF" opacity="1.000000" stroke="none" 
	d="
M241.257828,364.736084 
	C224.278931,343.831512 210.299164,321.355530 197.236786,298.291901 
	C195.449814,295.136780 193.590515,293.770874 189.891693,293.967102 
	C183.607254,294.300568 177.292313,294.058868 170.859116,294.058868 
	C170.671234,294.740814 170.348572,295.363953 170.350021,295.986328 
	C170.394470,315.140594 170.444748,334.294983 170.578064,353.448761 
	C170.593002,355.595520 171.004929,357.757965 171.407318,359.880035 
	C172.582352,366.076996 176.096207,370.085419 182.478073,371.165100 
	C188.186249,372.130829 193.913605,372.982971 199.750916,373.903870 
	C199.750916,376.843536 199.750916,379.472412 199.750916,382.429688 
	C173.571762,382.429688 147.554688,382.429688 121.242279,382.429688 
	C121.242279,379.595886 121.242279,376.843109 121.242279,373.796631 
	C125.487289,372.931091 129.708542,372.111053 133.911011,371.203979 
	C140.138306,369.859924 143.933945,365.976166 144.844589,359.724731 
	C145.561829,354.800842 146.054306,349.794312 146.057312,344.824127 
	C146.083099,302.346863 145.988235,259.869446 145.872559,217.392242 
	C145.865356,214.745514 145.450348,212.090698 145.102371,209.455872 
	C144.164490,202.354034 140.258240,197.971130 133.133423,196.599182 
	C131.336807,196.253250 129.552429,195.843689 127.755974,195.496872 
	C120.221718,194.042404 120.220818,194.047058 121.453117,185.486328 
	C124.664162,185.486328 127.930321,185.510788 131.196014,185.482452 
	C157.169510,185.257080 183.149292,184.579193 209.113983,184.953751 
	C224.929703,185.181885 239.871460,189.565125 251.602158,201.014938 
	C268.904297,217.902786 270.165924,246.806259 254.890594,267.435974 
	C246.386002,278.921661 235.399490,286.844635 220.659790,290.661072 
	C225.340317,298.244965 229.302673,305.550385 234.103058,312.255890 
	C243.595016,325.514923 253.294327,338.644104 263.389252,351.447449 
	C272.731262,363.295929 283.661957,373.177307 299.549774,374.818420 
	C300.664795,383.182800 300.292053,383.898285 292.597870,384.783691 
	C272.138428,387.138062 254.735153,381.391907 241.257828,364.736084 
M215.798965,275.388794 
	C233.602402,266.504059 241.879776,248.462845 237.513184,228.060745 
	C233.761826,210.533127 220.673340,199.900894 201.195953,199.067642 
	C192.561691,198.698273 183.893982,199.182251 175.243698,199.083557 
	C171.444839,199.040222 170.161957,200.350357 170.194733,204.329086 
	C170.386749,227.634109 170.284271,250.941528 170.300201,274.248138 
	C170.301193,275.709442 170.463806,277.170624 170.572021,278.979218 
	C185.789978,280.029602 200.708130,281.773926 215.798965,275.388794 
z"/>
<path fill="#F7FFFF" opacity="1.000000" stroke="none" 
	d="
M332.416687,172.088760 
	C343.188538,172.061493 353.499817,172.061493 364.628693,172.061493 
	C364.917755,186.888840 366.922485,201.566406 359.017090,214.964615 
	C357.221588,218.007645 354.370941,220.703537 351.442291,222.754242 
	C339.607300,231.041412 315.661285,231.060226 303.770172,222.938675 
	C293.327545,215.806427 289.584534,205.172226 289.304047,193.161697 
	C289.008667,180.512787 289.070129,167.848816 289.279266,155.196457 
	C289.585999,136.639420 304.332489,122.057373 323.645142,120.982796 
	C334.546783,120.376228 344.972717,121.826103 353.841675,128.907410 
	C364.448700,137.376480 364.284027,140.739594 353.107635,147.722702 
	C352.420197,148.152222 351.683655,148.503113 350.900665,148.928223 
	C348.731506,146.407654 346.929718,143.769836 344.609253,141.718872 
	C337.443787,135.385544 329.260376,132.983170 320.165344,137.051529 
	C311.058136,141.125320 305.681244,147.951248 305.756683,158.400604 
	C305.829987,168.558029 305.603546,178.720596 305.856110,188.872269 
	C305.954132,192.812164 306.468475,196.908051 307.714508,200.623917 
	C312.797089,215.780869 331.162170,219.756714 342.464264,208.337173 
	C347.923187,202.821518 351.016449,192.986633 349.740753,184.183655 
	C343.476532,184.183655 337.081726,184.183655 329.249512,184.183655 
	C330.290405,179.542908 331.123291,175.829468 332.416687,172.088760 
z"/>
<path fill="#07FEFE" opacity="1.000000" stroke="none" 
	d="
M215.460205,275.564270 
	C200.708130,281.773926 185.789978,280.029602 170.572021,278.979218 
	C170.463806,277.170624 170.301193,275.709442 170.300201,274.248138 
	C170.284271,250.941528 170.386749,227.634109 170.194733,204.329086 
	C170.161957,200.350357 171.444839,199.040222 175.243698,199.083557 
	C183.893982,199.182251 192.561691,198.698273 201.195953,199.067642 
	C220.673340,199.900894 233.761826,210.533127 237.513184,228.060745 
	C241.879776,248.462845 233.602402,266.504059 215.460205,275.564270 
M182.000000,268.000000 
	C182.000000,268.000000 182.002899,267.997559 182.080460,268.797363 
	C182.859146,269.508911 183.654190,270.853851 184.413956,270.834198 
	C192.191483,270.633148 200.077515,270.886810 207.694427,269.599915 
	C212.368835,268.810150 217.547455,266.509247 220.897675,263.243500 
	C229.947006,254.422348 231.145142,242.857178 229.424164,230.932617 
	C228.319580,223.278931 224.950348,217.111038 217.938263,212.785095 
	C207.966049,206.632965 197.157242,206.357086 186.196091,207.208466 
	C182.201248,207.518753 179.147217,210.714539 179.095261,214.997467 
	C178.895462,231.460464 178.948441,247.928055 179.138657,264.391235 
	C179.152679,265.604218 181.004837,266.795929 182.000000,268.000000 
z"/>
<path fill="#00F1FE" opacity="1.000000" stroke="none" 
	d="
M182.002441,267.997559 
	C181.004837,266.795929 179.152679,265.604218 179.138657,264.391235 
	C178.948441,247.928055 178.895462,231.460464 179.095261,214.997467 
	C179.147217,210.714539 182.201248,207.518753 186.196091,207.208466 
	C197.157242,206.357086 207.966049,206.632965 217.938263,212.785095 
	C224.950348,217.111038 228.319580,223.278931 229.424164,230.932617 
	C231.145142,242.857178 229.947006,254.422348 220.897675,263.243500 
	C217.547455,266.509247 212.368835,268.810150 207.694427,269.599915 
	C200.077515,270.886810 192.191483,270.633148 184.413956,270.834198 
	C183.654190,270.853851 182.859146,269.508911 182.510010,268.397339 
	C189.598022,267.997772 196.256699,268.035095 202.914841,267.990021 
	C213.145798,267.920715 222.914108,260.824554 225.412735,250.875702 
	C226.644760,245.970139 226.846909,240.728073 226.933792,235.628372 
	C227.137177,223.690872 221.282471,215.564545 209.758270,212.573425 
	C203.776627,211.020889 197.465637,210.450760 191.265945,210.100555 
	C184.229996,209.703110 182.013123,212.154190 182.007690,219.057953 
	C181.994843,235.371155 182.002869,251.684357 182.002441,267.997559 
z"/>
<path fill="#00E3FD" opacity="1.000000" stroke="none" 
	d="
M182.001221,267.998779 
	C182.002869,251.684357 181.994843,235.371155 182.007690,219.057953 
	C182.013123,212.154190 184.229996,209.703110 191.265945,210.100555 
	C197.465637,210.450760 203.776627,211.020889 209.758270,212.573425 
	C221.282471,215.564545 227.137177,223.690872 226.933792,235.628372 
	C226.846909,240.728073 226.644760,245.970139 225.412735,250.875702 
	C222.914108,260.824554 213.145798,267.920715 202.914841,267.990021 
	C196.256699,268.035095 189.598022,267.997772 182.471237,267.997437 
	C182.002899,267.997559 182.000000,268.000000 182.001221,267.998779 
z"/>
</svg>